<svg width="970" height="282" viewBox="0 0 970 282" fill="none" xmlns="http://www.w3.org/2000/svg">
<path d="M310.791 243.25C308.401 243.25 306.261 242.7 304.381 241.59C302.501 240.49 301.191 238.95 300.461 236.97L302.571 236.11C303.271 237.77 304.351 239.02 305.811 239.85C307.271 240.68 308.931 241.1 310.801 241.1C312.911 241.1 314.541 240.63 315.691 239.7C316.851 238.76 317.421 237.53 317.421 236C317.421 234.83 317.091 233.88 316.431 233.13C315.771 232.39 314.951 231.81 313.971 231.4C313.001 230.98 311.651 230.53 309.931 230.04C308.011 229.49 306.45 228.95 305.25 228.42C304.05 227.89 303.05 227.11 302.23 226.08C301.41 225.05 301 223.7 301 222.01C301 220.66 301.361 219.47 302.071 218.44C302.781 217.41 303.811 216.61 305.131 216.04C306.461 215.47 307.99 215.18 309.73 215.18C311.94 215.18 313.881 215.7 315.541 216.74C317.201 217.78 318.371 219.24 319.051 221.11L316.98 221.93C316.46 220.45 315.541 219.31 314.211 218.52C312.881 217.73 311.39 217.33 309.73 217.33C307.7 217.33 306.131 217.77 305.011 218.66C303.891 219.54 303.331 220.66 303.331 222.01C303.331 223.15 303.651 224.08 304.301 224.8C304.951 225.52 305.761 226.07 306.741 226.48C307.711 226.88 309.021 227.32 310.661 227.79C312.611 228.36 314.191 228.92 315.401 229.47C316.611 230.02 317.64 230.82 318.48 231.87C319.32 232.92 319.75 234.31 319.75 236.02C319.75 237.53 319.371 238.83 318.601 239.92C317.831 241.01 316.771 241.84 315.421 242.42C314.071 242.99 312.521 243.28 310.781 243.28L310.791 243.25Z" fill="white"/>
<path d="M335.74 243.25C333.97 243.25 332.39 242.81 331 241.94C329.61 241.07 328.52 239.85 327.74 238.28C326.96 236.71 326.57 234.92 326.57 232.92C326.57 230.92 326.96 229.13 327.74 227.56C328.52 225.99 329.6 224.77 331 223.9C332.39 223.03 333.97 222.59 335.74 222.59C337.51 222.59 339.09 223.03 340.48 223.9C341.87 224.77 342.96 225.99 343.74 227.56C344.52 229.13 344.91 230.92 344.91 232.92C344.91 234.92 344.52 236.71 343.74 238.28C342.96 239.85 341.87 241.07 340.48 241.94C339.09 242.81 337.51 243.25 335.74 243.25ZM335.74 241.11C337.79 241.11 339.44 240.36 340.69 238.87C341.94 237.38 342.56 235.39 342.56 232.92C342.56 230.45 341.94 228.47 340.69 226.97C339.44 225.48 337.79 224.73 335.74 224.73C333.69 224.73 332.04 225.48 330.79 226.97C329.54 228.47 328.92 230.45 328.92 232.92C328.92 235.39 329.54 237.37 330.79 238.87C332.04 240.37 333.69 241.11 335.74 241.11Z" fill="white"/>
<path d="M352.701 242.86V215.57H355.041V242.86H352.701Z" fill="white"/>
<path d="M371.181 243.25C368.791 243.25 366.931 242.54 365.601 241.11C364.271 239.68 363.611 237.6 363.611 234.87V222.98H365.951V234.6C365.951 236.76 366.421 238.37 367.371 239.43C368.321 240.5 369.661 241.03 371.411 241.03C372.711 241.03 373.861 240.72 374.861 240.11C375.861 239.5 376.631 238.67 377.181 237.63C377.731 236.59 378.001 235.43 378.001 234.16V222.97H380.341V232.25C380.341 236.95 380.401 240.49 380.531 242.85H378.311L377.961 239.58H377.731C377.081 240.7 376.161 241.59 374.961 242.25C373.761 242.91 372.501 243.24 371.181 243.24V243.25Z" fill="white"/>
<path d="M397.311 243.25C395.541 243.25 393.961 242.81 392.571 241.94C391.181 241.07 390.091 239.85 389.311 238.28C388.531 236.71 388.141 234.92 388.141 232.92C388.141 230.92 388.531 229.13 389.311 227.56C390.091 225.99 391.171 224.77 392.571 223.9C393.961 223.03 395.541 222.59 397.311 222.59C399.081 222.59 400.771 223.05 402.161 223.97C403.551 224.89 404.601 226.32 405.301 228.24L403.161 229.1C402.561 227.57 401.781 226.46 400.821 225.77C399.861 225.08 398.691 224.74 397.311 224.74C395.261 224.74 393.611 225.49 392.361 226.98C391.111 228.48 390.491 230.46 390.491 232.93C390.491 235.4 391.111 237.38 392.361 238.88C393.611 240.38 395.261 241.12 397.311 241.12C398.711 241.12 399.921 240.77 400.941 240.07C401.951 239.37 402.791 238.26 403.441 236.76L405.551 237.62C404.851 239.49 403.751 240.9 402.261 241.85C400.771 242.8 399.121 243.27 397.331 243.27L397.311 243.25ZM397.23 251.63C395.85 251.63 394.53 251.25 393.25 250.5L394.381 248.75C394.851 249.09 395.311 249.33 395.761 249.47C396.211 249.61 396.701 249.68 397.221 249.68C397.841 249.68 398.361 249.54 398.761 249.25C399.161 248.96 399.361 248.56 399.361 248.04C399.361 247.49 399.171 247.08 398.791 246.81C398.411 246.54 397.931 246.4 397.331 246.4C396.891 246.4 396.411 246.48 395.891 246.63L395.381 245.89L396.511 242.65H398.341L397.371 245.46L396.041 244.84H397.791C398.961 244.84 399.891 245.13 400.581 245.72C401.271 246.3 401.611 247.09 401.611 248.08C401.611 249.12 401.231 249.97 400.461 250.63C399.691 251.29 398.611 251.62 397.201 251.62L397.23 251.63Z" fill="white"/>
<path d="M421.17 243.25C419.4 243.25 417.82 242.81 416.43 241.94C415.04 241.07 413.95 239.85 413.17 238.28C412.39 236.71 412 234.92 412 232.92C412 230.92 412.39 229.13 413.17 227.56C413.95 225.99 415.03 224.77 416.43 223.9C417.82 223.03 419.4 222.59 421.17 222.59C422.94 222.59 424.52 223.03 425.91 223.9C427.3 224.77 428.39 225.99 429.17 227.56C429.95 229.13 430.34 230.92 430.34 232.92C430.34 234.92 429.95 236.71 429.17 238.28C428.39 239.85 427.3 241.07 425.91 241.94C424.52 242.81 422.94 243.25 421.17 243.25ZM421.17 241.11C423.22 241.11 424.87 240.36 426.12 238.87C427.37 237.38 427.99 235.39 427.99 232.92C427.99 230.45 427.37 228.47 426.12 226.97C424.87 225.48 423.22 224.73 421.17 224.73C419.12 224.73 417.47 225.48 416.22 226.97C414.97 228.47 414.35 230.45 414.35 232.92C414.35 235.39 414.97 237.37 416.22 238.87C417.47 240.37 419.12 241.11 421.17 241.11ZM415.51 219.51C415.51 217.95 415.83 216.84 416.48 216.18C417.13 215.52 417.86 215.19 418.66 215.19C419.23 215.19 419.74 215.33 420.2 215.62C420.65 215.91 421.17 216.31 421.74 216.83C422.13 217.19 422.45 217.47 422.71 217.65C422.97 217.83 423.22 217.92 423.45 217.92C423.92 217.92 424.27 217.68 424.5 217.2C424.73 216.72 424.85 216.05 424.85 215.19H426.8V216.09C426.8 217.68 426.49 218.77 425.86 219.36C425.24 219.96 424.5 220.26 423.64 220.26C423.04 220.26 422.52 220.12 422.08 219.83C421.64 219.54 421.13 219.13 420.56 218.58C420.12 218.22 419.78 217.95 419.55 217.78C419.32 217.61 419.08 217.53 418.85 217.53C418.38 217.53 418.03 217.74 417.8 218.15C417.57 218.57 417.45 219.27 417.45 220.26H415.5V219.52L415.51 219.51Z" fill="white"/>
<path d="M446.311 243.25C444.491 243.25 442.891 242.8 441.491 241.89C440.101 240.98 439.031 239.75 438.271 238.19C437.521 236.63 437.141 234.88 437.141 232.93C437.141 230.98 437.51 229.23 438.25 227.67C438.99 226.11 440.051 224.88 441.431 223.97C442.811 223.06 444.41 222.61 446.23 222.61C447.92 222.61 449.411 222.99 450.711 223.76C452.011 224.53 453.031 225.65 453.771 227.13C454.511 228.61 454.881 230.39 454.881 232.47C454.881 232.83 454.851 233.28 454.801 233.8H437.961V231.66H454.261L452.541 233.49V232.28C452.541 229.99 451.961 228.17 450.811 226.8C449.651 225.44 448.13 224.75 446.23 224.75C444.15 224.75 442.511 225.5 441.301 226.99C440.091 228.49 439.491 230.47 439.491 232.94C439.491 235.41 440.111 237.39 441.341 238.89C442.571 240.39 444.231 241.13 446.311 241.13C447.641 241.13 448.771 240.82 449.721 240.21C450.671 239.6 451.441 238.64 452.041 237.34L454.221 238.2C453.491 239.86 452.441 241.12 451.061 241.98C449.681 242.84 448.101 243.27 446.301 243.27L446.311 243.25Z" fill="white"/>
<path d="M469.63 243.25C467.63 243.25 465.909 242.8 464.479 241.9C463.049 241 462.09 239.78 461.59 238.22L463.66 237.4C464.02 238.54 464.74 239.46 465.8 240.15C466.87 240.84 468.14 241.18 469.62 241.18C471.1 241.18 472.24 240.87 473.05 240.26C473.86 239.65 474.26 238.81 474.26 237.75C474.26 236.97 474.03 236.34 473.56 235.86C473.09 235.38 472.51 235.01 471.83 234.75C471.14 234.49 470.19 234.19 468.96 233.85C467.5 233.46 466.32 233.08 465.39 232.7C464.47 232.32 463.69 231.74 463.05 230.97C462.41 230.19 462.09 229.16 462.09 227.89C462.09 226.85 462.38 225.93 462.97 225.12C463.55 224.31 464.35 223.69 465.37 223.25C466.38 222.81 467.54 222.59 468.84 222.59C470.61 222.59 472.13 223.01 473.4 223.84C474.67 224.67 475.56 225.8 476.05 227.23L473.979 228.05C473.619 226.98 472.98 226.15 472.07 225.55C471.16 224.95 470.08 224.65 468.83 224.65C467.43 224.65 466.34 224.96 465.57 225.57C464.8 226.18 464.42 226.95 464.42 227.89C464.42 228.64 464.65 229.26 465.12 229.74C465.59 230.22 466.16 230.59 466.84 230.85C467.52 231.11 468.46 231.41 469.69 231.75C471.17 232.14 472.37 232.52 473.3 232.9C474.22 233.28 475 233.86 475.64 234.63C476.28 235.41 476.6 236.45 476.6 237.75C476.6 239.44 475.94 240.78 474.63 241.77C473.32 242.76 471.65 243.25 469.62 243.25H469.63Z" fill="white"/>
<path d="M497.701 242.86V215.57H500.041V242.86H497.701Z" fill="white"/>
<path d="M509.241 233.58C509.241 228.88 509.171 225.34 509.051 222.98H511.23L511.581 226.1H511.811C512.431 224.98 513.261 224.12 514.291 223.51C515.321 222.9 516.451 222.59 517.701 222.59C519.181 222.59 520.421 222.92 521.421 223.56C522.421 224.21 523.221 225.17 523.821 226.45H524.051C524.701 225.23 525.581 224.28 526.681 223.6C527.781 222.92 529.081 222.59 530.561 222.59C532.691 222.59 534.351 223.23 535.531 224.52C536.711 225.81 537.301 227.75 537.301 230.35V242.87H534.961V230.63C534.961 228.73 534.55 227.29 533.73 226.3C532.91 225.31 531.761 224.82 530.281 224.82C529.191 224.82 528.191 225.1 527.301 225.66C526.401 226.22 525.701 226.99 525.191 227.96C524.681 228.93 524.431 230.02 524.431 231.22V242.88H522.091V230.75C522.091 228.83 521.681 227.36 520.861 226.34C520.041 225.33 518.891 224.82 517.411 224.82C516.321 224.82 515.321 225.1 514.431 225.66C513.531 226.22 512.831 226.99 512.321 227.96C511.811 228.93 511.561 230.02 511.561 231.22V242.88H509.221V233.6L509.241 233.58Z" fill="white"/>
<path d="M554.08 243.25C552.31 243.25 550.73 242.81 549.34 241.94C547.95 241.07 546.86 239.85 546.08 238.28C545.3 236.71 544.91 234.92 544.91 232.92C544.91 230.92 545.3 229.13 546.08 227.56C546.86 225.99 547.94 224.77 549.34 223.9C550.73 223.03 552.31 222.59 554.08 222.59C555.85 222.59 557.43 223.03 558.82 223.9C560.21 224.77 561.3 225.99 562.08 227.56C562.86 229.13 563.25 230.92 563.25 232.92C563.25 234.92 562.86 236.71 562.08 238.28C561.3 239.85 560.21 241.07 558.82 241.94C557.43 242.81 555.85 243.25 554.08 243.25ZM554.08 241.11C556.13 241.11 557.78 240.36 559.03 238.87C560.28 237.38 560.9 235.39 560.9 232.92C560.9 230.45 560.28 228.47 559.03 226.97C557.78 225.48 556.13 224.73 554.08 224.73C552.03 224.73 550.38 225.48 549.13 226.97C547.88 228.47 547.26 230.45 547.26 232.92C547.26 235.39 547.88 237.37 549.13 238.87C550.38 240.37 552.03 241.11 554.08 241.11Z" fill="white"/>
<path d="M580.362 243.25C578.832 243.25 577.502 242.93 576.382 242.29C575.262 241.65 574.342 240.74 573.612 239.54H573.382L573.032 242.85H570.852C570.982 240.49 571.042 236.95 571.042 232.25V215.56H573.382V226.28H573.612C574.342 225.08 575.262 224.17 576.382 223.53C577.502 222.89 578.822 222.57 580.362 222.57C582.052 222.57 583.542 223.01 584.842 223.88C586.142 224.75 587.152 225.97 587.862 227.54C588.572 229.11 588.932 230.9 588.932 232.9C588.932 234.9 588.572 236.69 587.862 238.26C587.142 239.83 586.142 241.05 584.842 241.92C583.542 242.79 582.052 243.23 580.362 243.23V243.25ZM579.972 241.11C581.972 241.11 583.582 240.36 584.792 238.87C586.002 237.38 586.602 235.39 586.602 232.92C586.602 230.45 586.002 228.47 584.792 226.97C583.582 225.48 581.982 224.73 579.972 224.73C577.962 224.73 576.372 225.48 575.172 226.97C573.972 228.47 573.382 230.45 573.382 232.92C573.382 235.39 573.982 237.37 575.172 238.87C576.372 240.37 577.962 241.11 579.972 241.11Z" fill="white"/>
<path d="M597.901 219.86C597.301 219.86 596.801 219.67 596.401 219.28C596.001 218.89 595.801 218.41 595.801 217.84C595.801 217.27 596.001 216.78 596.401 216.38C596.801 215.98 597.301 215.78 597.901 215.78C598.501 215.78 599.001 215.98 599.401 216.38C599.801 216.78 600 217.27 600 217.84C600 218.41 599.801 218.89 599.401 219.28C599.001 219.67 598.501 219.86 597.901 219.86ZM596.73 242.86V222.98H599.071V242.86H596.73Z" fill="white"/>
<path d="M607.84 242.86V215.57H610.18V242.86H607.84Z" fill="white"/>
<path d="M620.12 219.86C619.52 219.86 619.02 219.67 618.62 219.28C618.22 218.89 618.02 218.41 618.02 217.84C618.02 217.27 618.22 216.78 618.62 216.38C619.02 215.98 619.52 215.78 620.12 215.78C620.72 215.78 621.22 215.98 621.62 216.38C622.02 216.78 622.22 217.27 622.22 217.84C622.22 218.41 622.02 218.89 621.62 219.28C621.22 219.67 620.72 219.86 620.12 219.86ZM618.96 242.86V222.98H621.3V242.86H618.96Z" fill="white"/>
<path d="M635.68 243.25C633.73 243.25 632.17 242.73 631 241.69C629.83 240.65 629.25 239.29 629.25 237.6C629.25 235.73 629.98 234.24 631.43 233.14C632.89 232.04 634.9 231.41 637.47 231.25L643.28 230.9V232.93L637.63 233.32C635.73 233.45 634.25 233.87 633.19 234.57C632.12 235.27 631.59 236.29 631.59 237.61C631.59 238.68 631.99 239.53 632.78 240.16C633.57 240.8 634.63 241.12 635.96 241.12C637.29 241.12 638.49 240.78 639.51 240.11C640.52 239.43 641.3 238.52 641.85 237.36C642.4 236.2 642.67 234.92 642.67 233.52V229.47C642.67 227.94 642.16 226.77 641.15 225.96C640.14 225.15 638.88 224.75 637.37 224.75C635.97 224.75 634.77 225.1 633.78 225.8C632.79 226.5 632.06 227.48 631.6 228.72L629.46 227.86C629.95 226.2 630.94 224.9 632.4 223.98C633.87 223.06 635.53 222.6 637.37 222.6C639.71 222.6 641.57 223.18 642.95 224.35C644.33 225.52 645.02 227.2 645.02 229.38V232.15C645.02 236.91 645.08 240.48 645.21 242.87H643.34L642.91 239.05H642.68C642.06 240.4 641.14 241.44 639.93 242.17C638.72 242.9 637.31 243.26 635.7 243.26L635.68 243.25ZM636.62 220.05L638.88 215.37H642.15L638.6 220.05H636.61H636.62Z" fill="white"/>
<path d="M653.661 233.58C653.661 228.88 653.591 225.34 653.471 222.98H655.691L656.121 226.92L655.651 226.65H656.311C656.911 225.35 657.8 224.35 659 223.65C660.2 222.95 661.571 222.6 663.131 222.6C663.551 222.6 663.901 222.61 664.181 222.64V224.9C663.841 224.87 663.491 224.86 663.131 224.86C661.151 224.86 659.471 225.51 658.081 226.81C656.691 228.11 655.991 230.23 655.991 233.17V242.88H653.651V233.6L653.661 233.58Z" fill="white"/>
<path d="M672.37 219.86C671.77 219.86 671.27 219.67 670.87 219.28C670.47 218.89 670.27 218.41 670.27 217.84C670.27 217.27 670.47 216.78 670.87 216.38C671.27 215.98 671.77 215.78 672.37 215.78C672.97 215.78 673.47 215.98 673.87 216.38C674.27 216.78 674.47 217.27 674.47 217.84C674.47 218.41 674.27 218.89 673.87 219.28C673.47 219.67 672.97 219.86 672.37 219.86ZM671.2 242.86V222.98H673.54V242.86H671.2Z" fill="white"/>
<path d="M687.93 243.25C685.98 243.25 684.42 242.73 683.25 241.69C682.08 240.65 681.5 239.29 681.5 237.6C681.5 235.73 682.23 234.24 683.68 233.14C685.14 232.04 687.15 231.41 689.72 231.25L695.53 230.9V232.93L689.88 233.32C687.98 233.45 686.5 233.87 685.44 234.57C684.37 235.27 683.84 236.29 683.84 237.61C683.84 238.68 684.24 239.53 685.03 240.16C685.82 240.8 686.88 241.12 688.21 241.12C689.54 241.12 690.74 240.78 691.76 240.11C692.77 239.43 693.55 238.52 694.1 237.36C694.65 236.2 694.92 234.92 694.92 233.52V229.47C694.92 227.94 694.41 226.77 693.4 225.96C692.39 225.15 691.13 224.75 689.62 224.75C688.22 224.75 687.02 225.1 686.03 225.8C685.04 226.5 684.31 227.48 683.85 228.72L681.71 227.86C682.2 226.2 683.19 224.9 684.65 223.98C686.12 223.06 687.78 222.6 689.62 222.6C691.96 222.6 693.82 223.18 695.2 224.35C696.58 225.52 697.27 227.2 697.27 229.38V232.15C697.27 236.91 697.33 240.48 697.46 242.87H695.59L695.16 239.05H694.93C694.31 240.4 693.39 241.44 692.18 242.17C690.97 242.9 689.56 243.26 687.95 243.26L687.93 243.25Z" fill="white"/>
<path d="M712.921 243.25C710.921 243.25 709.201 242.8 707.771 241.9C706.341 241 705.381 239.78 704.881 238.22L706.951 237.4C707.311 238.54 708.031 239.46 709.091 240.15C710.161 240.84 711.431 241.18 712.911 241.18C714.391 241.18 715.531 240.87 716.341 240.26C717.151 239.65 717.551 238.81 717.551 237.75C717.551 236.97 717.321 236.34 716.851 235.86C716.381 235.38 715.801 235.01 715.121 234.75C714.431 234.49 713.48 234.19 712.25 233.85C710.79 233.46 709.611 233.08 708.681 232.7C707.761 232.32 706.981 231.74 706.341 230.97C705.701 230.19 705.381 229.16 705.381 227.89C705.381 226.85 705.671 225.93 706.261 225.12C706.841 224.31 707.641 223.69 708.661 223.25C709.671 222.81 710.831 222.59 712.131 222.59C713.901 222.59 715.421 223.01 716.691 223.84C717.961 224.67 718.851 225.8 719.341 227.23L717.271 228.05C716.911 226.98 716.271 226.15 715.361 225.55C714.451 224.95 713.371 224.65 712.121 224.65C710.721 224.65 709.631 224.96 708.861 225.57C708.091 226.18 707.711 226.95 707.711 227.89C707.711 228.64 707.941 229.26 708.411 229.74C708.881 230.22 709.451 230.59 710.131 230.85C710.811 231.11 711.75 231.41 712.98 231.75C714.46 232.14 715.661 232.52 716.591 232.9C717.511 233.28 718.291 233.86 718.931 234.63C719.571 235.41 719.891 236.45 719.891 237.75C719.891 239.44 719.231 240.78 717.921 241.77C716.611 242.76 714.941 243.25 712.911 243.25H712.921Z" fill="white"/>
<path d="M169.181 0H134.051V63.8701L142.631 69.0801V98.9199H169.181V0Z" fill="#939393"/>
<path d="M183.63 38.1797V7.64014L172 1.17969V98.9199L180.58 103.25V38.1797H183.63Z" fill="#939393"/>
<path d="M328.43 104.34H355.11L383.13 190.76H363.75L357.35 168.69H326.26L319.86 190.76H300.41L328.43 104.34ZM330.61 154.88H353.26L343.73 121.81C343.39 120.87 343.11 119.81 342.9 118.61C342.69 117.42 342.58 116.31 342.58 115.28V113.74H341.36V115.28C341.36 116.3 341.25 117.41 341.04 118.61C340.83 119.8 340.55 120.89 340.21 121.87L330.61 154.88Z" fill="#049B24"/>
<path d="M422.021 191.28C410.631 191.28 401.692 188.28 395.182 182.29C388.682 176.3 385.422 164.64 385.422 147.33C385.422 130.02 388.701 118.95 395.271 112.85C401.841 106.75 411.302 103.7 423.672 103.7C435.142 103.7 444.092 106.42 450.512 111.86C456.932 117.3 460.271 125.45 460.521 136.33H441.782C441.442 128.44 439.872 123.16 437.082 120.5C434.292 117.84 429.822 116.5 423.682 116.5C417.542 116.5 412.512 118.19 409.222 121.55C405.942 124.92 404.292 133.7 404.292 147.91C404.292 160.02 405.952 168.15 409.282 172.28C412.612 176.42 417.572 178.49 424.192 178.49C430.332 178.49 434.792 177.23 437.562 174.72C440.332 172.2 441.822 167.92 442.042 161.86L442.682 158.21H425.152V147.02H460.532V190.78H448.702L448.642 180.86L450.432 175.55L449.342 174.4L447.422 179.13C444.092 187.23 435.631 191.28 422.021 191.28Z" fill="#049B24"/>
<path d="M472.871 104.41H491.611V190.77H472.871V104.41Z" fill="#049B24"/>
<path d="M517.52 174.13V175.41H558.59V190.76H503.77V104.4H522.58V169.97C522.58 171.21 522.22 172.19 521.49 172.91C520.76 173.64 519.78 174.02 518.55 174.06L517.53 174.12L517.52 174.13Z" fill="#049B24"/>
<path d="M579.831 113.4V121.35H572.701V113.4H579.831ZM572.701 129.72H579.831V190.77H572.701V129.72Z" fill="white"/>
<path d="M635.29 155.08C635.29 147.95 634.08 142.7 631.67 139.33C629.26 135.96 625.39 134.27 620.05 134.27C614.71 134.27 610.29 136.08 606.98 139.69C604.02 142.93 602.38 147.49 602.07 153.38V190.77H594.99V129.77H602.07V137.9C602.07 138.05 602.05 138.2 602.02 138.34L600.78 141.39L601.04 142.58L601.14 142.48C602.21 140 603.69 137.78 605.58 135.82C609.82 131.45 615.27 129.26 621.95 129.26H622.26C629.49 129.36 634.66 131.64 637.75 136.08C638.99 137.91 639.99 139.99 640.75 142.33C641.89 140.06 643.42 137.97 645.35 136.08C649.96 131.54 655.61 129.26 662.29 129.26H662.6C669.8 129.36 674.93 131.64 678.02 136.1C681.1 140.56 682.64 146.71 682.64 154.56V190.76H675.56V155.07C675.56 147.94 674.36 142.69 671.97 139.32C669.58 135.95 665.69 134.26 660.32 134.26C654.95 134.26 650.61 136.07 647.3 139.68C644.27 142.99 642.63 147.69 642.39 153.78V190.76H635.26V155.07L635.29 155.08Z" fill="white"/>
<path d="M722.78 191.23C714.17 191.23 707.03 188.8 701.35 183.95C695.67 179.1 692.83 171.16 692.83 160.14C692.83 149.12 695.67 141.25 701.35 136.43C707.03 131.61 714.18 129.2 722.78 129.2C731.38 129.2 738.52 131.61 744.19 136.43C749.85 141.25 752.69 149.15 752.69 160.14C752.69 171.13 749.86 179.09 744.19 183.95C738.53 188.8 731.39 191.23 722.78 191.23ZM722.78 186.27C729.18 186.27 734.58 184.37 738.97 180.56C743.36 176.76 745.56 169.96 745.56 160.19C745.56 150.42 743.36 143.62 738.97 139.82C734.58 136.02 729.18 134.11 722.78 134.11C716.38 134.11 710.97 136.01 706.56 139.82C702.15 143.63 699.95 150.42 699.95 160.19C699.95 169.96 702.15 176.76 706.56 180.56C710.97 184.37 716.37 186.27 722.78 186.27ZM724.07 119.85H729.8L719.83 127.39H715.7L724.07 119.85Z" fill="white"/>
<path d="M808.52 129.72H816.01L791.94 190.77H781.97L757.9 129.72H765.39L786.1 183.74C786.2 184.05 786.31 184.4 786.44 184.8C786.56 185.2 786.67 185.57 786.78 185.91L786.83 186.94H787.09L787.19 185.91C787.26 185.57 787.36 185.2 787.5 184.8C787.64 184.4 787.76 184.05 787.86 183.74L808.52 129.72Z" fill="white"/>
<path d="M850.711 186.58C854.841 186.58 858.471 186 861.611 184.85C864.741 183.7 867.2 181.75 869 179.01C870.79 176.27 871.941 173.22 872.461 169.84H879.591C879.041 174.49 877.461 178.48 874.861 181.82C872.261 185.16 868.911 187.57 864.811 189.05C860.711 190.53 856.011 191.27 850.711 191.27C841.591 191.27 834.371 188.64 829.071 183.37C823.731 178.1 821.061 170.34 821.061 160.08C821.061 149.82 823.811 141.6 829.301 136.66C834.791 131.72 841.891 129.25 850.601 129.25C859.311 129.25 866.741 131.72 871.961 136.66C877.181 141.6 879.781 149.32 879.781 159.82L879.73 162.04H827.98C828.22 170.27 830.171 176.33 833.821 180.22C837.751 184.46 843.371 186.57 850.711 186.57V186.58ZM872.661 157.92C872.631 149.42 870.671 143.3 866.801 139.56C862.931 135.82 857.531 133.96 850.611 133.96C843.691 133.96 838.181 135.91 834.081 139.8C830.291 143.38 828.261 149.42 827.991 157.93H872.661V157.92Z" fill="white"/>
<path d="M900.911 113.4V121.35H893.781V113.4H900.911ZM893.791 129.72H900.921V190.77H893.791V129.72Z" fill="white"/>
<path d="M942.641 191.23C933.791 191.23 926.961 189.72 922.141 186.69C917.321 183.66 914.741 178.63 914.391 171.61H921.051C921.391 176.95 923.441 180.77 927.201 183.08C930.951 185.39 936.14 186.54 942.75 186.54C949.36 186.54 954.371 185.57 957.681 183.62C960.991 181.68 962.641 178.95 962.641 175.43C962.641 170.09 960.481 166.75 956.161 165.38C951.841 164.02 946.391 163.03 939.811 162.41C932.891 161.65 927.001 160.16 922.151 157.94C917.301 155.72 914.871 151.42 914.871 145.05C914.871 140.06 917.07 136.18 921.48 133.43C925.89 130.68 932.481 129.3 941.261 129.3C950.041 129.3 956.851 130.82 961.691 133.84C966.531 136.87 969.121 141.52 969.461 147.78H962.75C962.44 143.1 960.471 139.63 956.841 137.37C953.211 135.12 947.981 133.99 941.171 133.99C934.731 133.99 929.911 134.95 926.711 136.88C923.511 138.81 921.911 141.58 921.911 145.2C921.911 149.81 924.071 152.9 928.391 154.44C932.711 155.99 938.061 157.09 944.431 157.75C951.491 158.51 957.461 159.84 962.351 161.75C967.241 163.66 969.681 168.09 969.681 175.05C969.681 180.25 967.571 184.24 963.351 187.03C959.131 189.82 952.241 191.21 942.671 191.21L942.641 191.23Z" fill="white"/>
<path d="M354.652 100.89H329.172L347.021 88.48H359.632L354.652 100.89Z" fill="#049B24"/>
<path d="M125.479 196.84V61.9097H90.3496V197.11C101.15 195.2 112.869 194.89 125.479 196.84Z" fill="#939393"/>
<path d="M218.759 206.46V41.1201H183.629V204.6C196.349 203.65 208.049 204.43 218.759 206.46Z" fill="#939393"/>
<path d="M233.21 48.7598L221.58 42.2998V207.03C225.6 207.89 229.48 208.93 233.21 210.11V48.7598Z" fill="#939393"/>
<path d="M175.05 205.49V102.21H139.92V200C146.8 201.93 153.92 204.54 161.27 207.91C165.98 206.87 170.57 206.08 175.05 205.48V205.49Z" fill="#939393"/>
<path d="M136.399 98.9199H139.919V69.5498L128.289 63.0898V197.32C130.949 197.8 133.659 198.38 136.399 199.07V98.9297V98.9199Z" fill="#939393"/>
<path d="M217.709 105.71L177.869 104.21V205.14C215.909 205.04 216.809 204.94 217.709 204.86V105.71Z" fill="#939393"/>
<path d="M173.539 269.53V269.69L177.059 269.8V269.64L173.539 269.53Z" fill="url(#paint0_linear_3_85)"/>
<path d="M212.189 270.79V270.89L215.009 270.98V270.89L212.189 270.79Z" fill="url(#paint1_linear_3_85)"/>
<path d="M162.609 269.17V269.35L165.429 269.43V269.26L162.609 269.17Z" fill="url(#paint2_linear_3_85)"/>
<path d="M165.43 269.26V269.43L173.54 269.69V269.53L165.43 269.26Z" fill="url(#paint3_linear_3_85)"/>
<path d="M165.43 269.26V269.43L173.54 269.69V269.53L165.43 269.26Z" fill="url(#paint4_linear_3_85)"/>
<path d="M215.01 270.89V270.98L217.71 271.07V270.98L215.01 270.89Z" fill="url(#paint5_linear_3_85)"/>
<path d="M215.01 270.89V270.98L217.71 271.07V270.98L215.01 270.89Z" fill="url(#paint6_linear_3_85)"/>
<path d="M217.71 218.28C216.81 217.73 215.91 217.18 215.01 216.65Z" fill="#00682C"/>
<path d="M244.67 279.08L242.33 279.01L311.3 281.27C311.3 281.27 265.81 191.58 162.26 213.72C163.56 214.54 164.89 215.41 166.25 216.32C190.07 228.22 216.25 248.14 244.67 279.08Z" fill="#00682C"/>
<path d="M227.68 278.55L242.33 279.01L227.66 278.53C227.66 278.53 227.66 278.54 227.67 278.55H227.68Z" fill="url(#paint7_linear_3_85)"/>
<path d="M83.6504 273.81C83.7204 273.89 83.7901 273.97 83.8701 274.05L99.5903 274.54C99.5303 274.47 99.4702 274.39 99.4102 274.32L83.6602 273.8L83.6504 273.81Z" fill="url(#paint8_linear_3_85)"/>
<path d="M103.049 274.45C103.109 274.52 103.169 274.59 103.219 274.66L121.049 275.22C120.999 275.16 120.949 275.1 120.899 275.04L103.039 274.46L103.049 274.45Z" fill="url(#paint9_linear_3_85)"/>
<path d="M144.871 275.81C144.871 275.81 144.941 275.91 144.981 275.96L161.851 276.49C161.851 276.49 161.791 276.41 161.771 276.37L144.881 275.82L144.871 275.81Z" fill="url(#paint10_linear_3_85)"/>
<path d="M209.041 277.91C209.041 277.91 209.061 277.94 209.071 277.96L224.331 278.44L224.311 278.41L209.031 277.91H209.041Z" fill="url(#paint11_linear_3_85)"/>
<path d="M165.141 276.48C165.141 276.48 165.191 276.56 165.221 276.6L184 277.19C184 277.19 183.961 277.13 183.941 277.1L165.141 276.48Z" fill="url(#paint12_linear_3_85)"/>
<path d="M187.27 277.2C187.27 277.2 187.31 277.26 187.32 277.28L205.729 277.86C205.729 277.86 205.71 277.82 205.69 277.8L187.26 277.2H187.27Z" fill="url(#paint13_linear_3_85)"/>
<path d="M124.461 275.15C124.511 275.21 124.551 275.27 124.601 275.33L141.521 275.86C141.481 275.81 141.451 275.76 141.411 275.71L124.461 275.16V275.15Z" fill="url(#paint14_linear_3_85)"/>
<path d="M166.25 216.31C167.35 217.04 168.46 217.8 169.6 218.59C185.7 229.81 208.26 249.05 227.67 278.52L242.34 279L244.68 279.07C216.26 248.12 190.08 228.2 166.26 216.31H166.25Z" fill="#00682C"/>
<path d="M166.25 216.31C167.35 217.04 168.46 217.8 169.6 218.59C185.7 229.81 208.26 249.05 227.67 278.52L242.34 279L244.68 279.07C216.26 248.12 190.08 228.2 166.26 216.31H166.25Z" fill="url(#paint15_linear_3_85)"/>
<path d="M168.12 220.9C164.73 218.54 161.49 216.43 158.46 214.57C155.79 215.2 153.08 215.91 150.34 216.7C166.7 228.16 189.56 247.8 209.04 277.92L224.32 278.42C205.42 250.25 183.7 231.77 168.12 220.9Z" fill="#00682C"/>
<path d="M117.77 228.99C114.07 230.71 110.32 232.56 106.51 234.56C118.57 244.61 132.19 258.18 144.87 275.82L161.76 276.37C147.28 255.31 131.31 239.82 117.77 228.99Z" fill="#00682C"/>
<path d="M148.461 218.71C147.961 218.36 147.47 218.02 146.98 217.69C143.27 218.82 139.491 220.1 135.641 221.52C151.071 233.26 170.401 251.34 187.271 277.2L205.701 277.8C186.561 248.75 164.331 229.77 148.461 218.71Z" fill="#00682C"/>
<path d="M132.619 222.66C128.659 224.19 124.639 225.86 120.539 227.71C134.379 238.92 150.569 254.87 165.139 276.47L183.939 277.09C167.019 251.62 147.749 233.97 132.629 222.66H132.619Z" fill="#00682C"/>
<path d="M90.5698 243.51C87.0398 245.63 83.4696 247.87 79.8496 250.23C87.3496 256.96 95.2598 265 103.05 274.45L120.91 275.03C110.72 262.1 100.19 251.69 90.5698 243.51Z" fill="#00682C"/>
<path d="M77.4795 251.77C74.4395 253.78 71.3598 255.89 68.2598 258.07C73.2898 262.73 78.4696 267.96 83.6396 273.81L99.3896 274.33C92.0096 265.57 84.5495 258.09 77.4795 251.78V251.77Z" fill="#00682C"/>
<path d="M65.981 259.68C60.321 263.72 54.5614 268.04 48.6914 272.66L79.8711 273.68C75.1911 268.52 70.521 263.86 65.981 259.68Z" fill="#00682C"/>
<path d="M103.891 235.94C100.331 237.85 96.7108 239.88 93.0508 242.04C103.041 250.61 113.961 261.55 124.461 275.15L141.411 275.7C128.921 258.68 115.621 245.61 103.891 235.94Z" fill="#00682C"/>
<path d="M79.8701 273.69C75.1901 268.53 70.52 263.87 65.98 259.69C57.87 252.22 50.1901 246.25 43.6001 241.66C39.1001 238.52 34.86 235.84 31.02 233.57C10.63 251.96 0 271.44 0 271.44L80.0903 273.94C80.0203 273.86 79.9401 273.77 79.8701 273.69Z" fill="url(#paint16_linear_3_85)"/>
<path d="M168.12 220.9C164.73 218.54 161.49 216.43 158.46 214.57C154.51 212.14 150.91 210.13 147.79 208.49C141.12 206.17 134.65 204.48 128.4 203.35C134.11 206.3 141.53 210.57 149.93 216.42C150.06 216.51 150.2 216.61 150.33 216.71C166.69 228.17 189.55 247.81 209.03 277.93L224.31 278.43C205.41 250.26 183.69 231.78 168.11 220.91L168.12 220.9Z" fill="url(#paint17_linear_3_85)"/>
<path d="M117.77 228.99C113.94 225.93 110.3 223.23 106.95 220.9C95.8202 213.14 86.3101 208.16 80.3901 205.39C76.3001 206.54 72.3603 207.91 68.5703 209.46C74.5003 212.42 82.65 216.97 92.04 223.52C96.44 226.59 101.33 230.25 106.5 234.57C118.56 244.62 132.18 258.19 144.86 275.83L161.75 276.38C147.27 255.32 131.3 239.83 117.76 229L117.77 228.99Z" fill="url(#paint18_linear_3_85)"/>
<path d="M148.461 218.71C147.961 218.36 147.471 218.02 146.981 217.69C134.801 209.36 124.731 204.42 119.441 202.08C114.021 201.53 108.771 201.4 103.691 201.63C109.701 204.55 118.441 209.31 128.631 216.41C130.851 217.96 133.201 219.66 135.641 221.52C151.071 233.26 170.401 251.34 187.271 277.2L205.701 277.8C186.561 248.75 164.331 229.77 148.461 218.71Z" fill="url(#paint19_linear_3_85)"/>
<path d="M132.62 222.66C130.73 221.25 128.91 219.93 127.16 218.71C114.27 209.72 103.55 204.46 98.0698 202.04C93.3898 202.51 88.8695 203.28 84.5195 204.32C90.4795 207.27 98.8097 211.89 108.43 218.6C112.16 221.2 116.24 224.23 120.54 227.72C134.38 238.93 150.57 254.88 165.14 276.48L183.94 277.1C167.02 251.63 147.75 233.98 132.63 222.67L132.62 222.66Z" fill="url(#paint20_linear_3_85)"/>
<path d="M90.5708 243.51C84.8808 238.67 79.5105 234.61 74.7305 231.27C65.8605 225.08 58.0207 220.67 52.2007 217.72C49.0407 219.63 46.0206 221.64 43.1406 223.73C47.8506 226.38 53.3105 229.73 59.2705 233.88C65.3705 238.13 72.4106 243.54 79.8506 250.22C87.3506 256.95 95.2608 264.99 103.051 274.44L120.911 275.02C110.721 262.09 100.191 251.68 90.5708 243.5V243.51Z" fill="url(#paint21_linear_3_85)"/>
<path d="M77.4795 251.77C70.3695 245.43 63.6498 240.27 57.7998 236.19C51.4598 231.77 45.6497 228.25 40.7197 225.53C38.0797 227.53 35.5697 229.58 33.1797 231.66C36.8297 233.84 40.8296 236.39 45.0796 239.35C51.8896 244.1 59.8695 250.29 68.2695 258.07C73.2995 262.73 78.4799 267.96 83.6499 273.81L99.3999 274.33C92.0199 265.57 84.5597 258.09 77.4897 251.78L77.4795 251.77Z" fill="url(#paint22_linear_3_85)"/>
<path d="M103.89 235.94C99.1396 232.02 94.6398 228.65 90.5698 225.81C80.1798 218.56 71.1997 213.75 65.2397 210.88C61.6897 212.47 58.2798 214.21 55.0098 216.07C60.6798 219.02 67.9697 223.23 76.1997 228.97C81.2697 232.5 86.9898 236.84 93.0498 242.04C103.04 250.61 113.96 261.55 124.46 275.15L141.41 275.7C128.92 258.68 115.62 245.61 103.89 235.94Z" fill="url(#paint23_linear_3_85)"/>
<defs>
<linearGradient id="paint0_linear_3_85" x1="-1080.76" y1="1519.21" x2="227.321" y2="218.032" gradientUnits="userSpaceOnUse">
<stop stop-color="#049B24"/>
<stop offset="0.27" stop-color="#049622"/>
<stop offset="1" stop-color="#068E20"/>
</linearGradient>
<linearGradient id="paint1_linear_3_85" x1="-1061.02" y1="1538.5" x2="246.58" y2="237.409" gradientUnits="userSpaceOnUse">
<stop stop-color="#049B24"/>
<stop offset="0.27" stop-color="#049622"/>
<stop offset="1" stop-color="#068E20"/>
</linearGradient>
<linearGradient id="paint2_linear_3_85" x1="-1086.47" y1="1512.18" x2="220.353" y2="211.088" gradientUnits="userSpaceOnUse">
<stop stop-color="#049B24"/>
<stop offset="0.27" stop-color="#049622"/>
<stop offset="1" stop-color="#068E20"/>
</linearGradient>
<linearGradient id="paint3_linear_3_85" x1="15.0922" y1="423.933" x2="273.348" y2="165.787" gradientUnits="userSpaceOnUse">
<stop stop-color="#049B24"/>
<stop offset="0.37" stop-color="#059421"/>
<stop offset="1" stop-color="#068E20"/>
</linearGradient>
<linearGradient id="paint4_linear_3_85" x1="-1083.73" y1="1516.63" x2="224.805" y2="215.485" gradientUnits="userSpaceOnUse">
<stop stop-color="#049B24"/>
<stop offset="0.27" stop-color="#049622"/>
<stop offset="1" stop-color="#068E20"/>
</linearGradient>
<linearGradient id="paint5_linear_3_85" x1="-727.658" y1="1213.29" x2="297.816" y2="185.959" gradientUnits="userSpaceOnUse">
<stop stop-color="#049B24"/>
<stop offset="0.27" stop-color="#049622"/>
<stop offset="1" stop-color="#068E20"/>
</linearGradient>
<linearGradient id="paint6_linear_3_85" x1="-1059.77" y1="1538.11" x2="245.966" y2="236.836" gradientUnits="userSpaceOnUse">
<stop stop-color="#049B24"/>
<stop offset="0.27" stop-color="#049622"/>
<stop offset="1" stop-color="#068E20"/>
</linearGradient>
<linearGradient id="paint7_linear_3_85" x1="-1068.18" y1="1575.05" x2="239.772" y2="273.885" gradientUnits="userSpaceOnUse">
<stop stop-color="#049B24"/>
<stop offset="0.27" stop-color="#049622"/>
<stop offset="1" stop-color="#068E20"/>
</linearGradient>
<linearGradient id="paint8_linear_3_85" x1="-1141.79" y1="1501.49" x2="166.619" y2="200.324" gradientUnits="userSpaceOnUse">
<stop stop-color="#049B24"/>
<stop offset="0.27" stop-color="#049622"/>
<stop offset="1" stop-color="#068E20"/>
</linearGradient>
<linearGradient id="paint9_linear_3_85" x1="-1131.33" y1="1511.69" x2="176.709" y2="210.499" gradientUnits="userSpaceOnUse">
<stop stop-color="#049B24"/>
<stop offset="0.27" stop-color="#049622"/>
<stop offset="1" stop-color="#068E20"/>
</linearGradient>
<linearGradient id="paint10_linear_3_85" x1="-1110.1" y1="1532.38" x2="197.303" y2="231.213" gradientUnits="userSpaceOnUse">
<stop stop-color="#049B24"/>
<stop offset="0.27" stop-color="#049622"/>
<stop offset="1" stop-color="#068E20"/>
</linearGradient>
<linearGradient id="paint11_linear_3_85" x1="-1077.57" y1="1566.31" x2="231.102" y2="265.162" gradientUnits="userSpaceOnUse">
<stop stop-color="#049B24"/>
<stop offset="0.27" stop-color="#049622"/>
<stop offset="1" stop-color="#068E20"/>
</linearGradient>
<linearGradient id="paint12_linear_3_85" x1="-1099.2" y1="1543.84" x2="208.728" y2="242.68" gradientUnits="userSpaceOnUse">
<stop stop-color="#049B24"/>
<stop offset="0.27" stop-color="#049622"/>
<stop offset="1" stop-color="#068E20"/>
</linearGradient>
<linearGradient id="paint13_linear_3_85" x1="-1087.93" y1="1555.53" x2="220.377" y2="254.383" gradientUnits="userSpaceOnUse">
<stop stop-color="#049B24"/>
<stop offset="0.27" stop-color="#049622"/>
<stop offset="1" stop-color="#068E20"/>
</linearGradient>
<linearGradient id="paint14_linear_3_85" x1="-1120.52" y1="1522.39" x2="187.406" y2="221.248" gradientUnits="userSpaceOnUse">
<stop stop-color="#049B24"/>
<stop offset="0.27" stop-color="#049622"/>
<stop offset="1" stop-color="#068E20"/>
</linearGradient>
<linearGradient id="paint15_linear_3_85" x1="-1098.42" y1="1544.71" x2="209.58" y2="243.535" gradientUnits="userSpaceOnUse">
<stop stop-color="#049B24"/>
<stop offset="0.27" stop-color="#049622"/>
<stop offset="1" stop-color="#068E20"/>
</linearGradient>
<linearGradient id="paint16_linear_3_85" x1="-4847.93" y1="5157.09" x2="247.525" y2="61.6329" gradientUnits="userSpaceOnUse">
<stop stop-color="#049B24"/>
<stop offset="0.27" stop-color="#049622"/>
<stop offset="1" stop-color="#068E20"/>
</linearGradient>
<linearGradient id="paint17_linear_3_85" x1="-1499.34" y1="1916.58" x2="249.636" y2="167.597" gradientUnits="userSpaceOnUse">
<stop stop-color="#049B24"/>
<stop offset="0.27" stop-color="#049622"/>
<stop offset="1" stop-color="#068E20"/>
</linearGradient>
<linearGradient id="paint18_linear_3_85" x1="-1859.9" y1="2217.98" x2="201.089" y2="156.99" gradientUnits="userSpaceOnUse">
<stop stop-color="#049B24"/>
<stop offset="0.27" stop-color="#049622"/>
<stop offset="1" stop-color="#068E20"/>
</linearGradient>
<linearGradient id="paint19_linear_3_85" x1="-1866.64" y1="2261.07" x2="242.913" y2="151.511" gradientUnits="userSpaceOnUse">
<stop stop-color="#049B24"/>
<stop offset="0.27" stop-color="#049622"/>
<stop offset="1" stop-color="#068E20"/>
</linearGradient>
<linearGradient id="paint20_linear_3_85" x1="-1922.97" y1="2297.89" x2="223.893" y2="151.023" gradientUnits="userSpaceOnUse">
<stop stop-color="#049B24"/>
<stop offset="0.27" stop-color="#049622"/>
<stop offset="1" stop-color="#068E20"/>
</linearGradient>
<linearGradient id="paint21_linear_3_85" x1="-1712.74" y1="2044.16" x2="159.43" y2="171.999" gradientUnits="userSpaceOnUse">
<stop stop-color="#049B24"/>
<stop offset="0.27" stop-color="#049622"/>
<stop offset="1" stop-color="#068E20"/>
</linearGradient>
<linearGradient id="paint22_linear_3_85" x1="-1480.55" y1="1799.82" x2="132.804" y2="186.484" gradientUnits="userSpaceOnUse">
<stop stop-color="#049B24"/>
<stop offset="0.27" stop-color="#049622"/>
<stop offset="1" stop-color="#068E20"/>
</linearGradient>
<linearGradient id="paint23_linear_3_85" x1="-1807.36" y1="2151.45" x2="180.726" y2="163.367" gradientUnits="userSpaceOnUse">
<stop stop-color="#049B24"/>
<stop offset="0.27" stop-color="#049622"/>
<stop offset="1" stop-color="#068E20"/>
</linearGradient>
</defs>
</svg>
