<svg width="312" height="282" viewBox="0 0 312 282" fill="none" xmlns="http://www.w3.org/2000/svg">
<path d="M169.181 0H134.051V63.8701L142.631 69.0801V98.9199H169.181V0Z" fill="#515151"/>
<path d="M183.63 38.1797V7.64014L172 1.17969V98.9199L180.58 103.25V38.1797H183.63Z" fill="#515151"/>
<path d="M125.479 196.84V61.9097H90.3496V197.11C101.15 195.2 112.869 194.89 125.479 196.84Z" fill="#515151"/>
<path d="M218.759 206.46V41.1201H183.629V204.6C196.349 203.65 208.049 204.43 218.759 206.46Z" fill="#515151"/>
<path d="M233.21 48.7598L221.58 42.2998V207.03C225.6 207.89 229.48 208.93 233.21 210.11V48.7598Z" fill="#515151"/>
<path d="M175.05 205.49V102.21H139.92V200C146.8 201.93 153.92 204.54 161.27 207.91C165.98 206.87 170.57 206.08 175.05 205.48V205.49Z" fill="#515151"/>
<path d="M136.399 98.9199H139.919V69.5498L128.289 63.0898V197.32C130.949 197.8 133.659 198.38 136.399 199.07V98.9297V98.9199Z" fill="#515151"/>
<path d="M217.709 105.71L177.869 104.21V205.14C215.909 205.04 216.809 204.94 217.709 204.86V105.71Z" fill="#515151"/>
<path d="M173.539 269.53V269.69L177.059 269.8V269.64L173.539 269.53Z" fill="url(#paint0_linear_12_2)"/>
<path d="M212.189 270.79V270.89L215.009 270.98V270.89L212.189 270.79Z" fill="url(#paint1_linear_12_2)"/>
<path d="M162.609 269.17V269.35L165.429 269.43V269.26L162.609 269.17Z" fill="url(#paint2_linear_12_2)"/>
<path d="M165.43 269.26V269.43L173.54 269.69V269.53L165.43 269.26Z" fill="url(#paint3_linear_12_2)"/>
<path d="M165.43 269.26V269.43L173.54 269.69V269.53L165.43 269.26Z" fill="url(#paint4_linear_12_2)"/>
<path d="M215.01 270.89V270.98L217.71 271.07V270.98L215.01 270.89Z" fill="url(#paint5_linear_12_2)"/>
<path d="M215.01 270.89V270.98L217.71 271.07V270.98L215.01 270.89Z" fill="url(#paint6_linear_12_2)"/>
<path d="M217.71 218.28C216.81 217.73 215.91 217.18 215.01 216.65L217.71 218.28Z" fill="#00682C"/>
<path d="M244.67 279.08L242.33 279.01L311.3 281.27C311.3 281.27 265.81 191.58 162.26 213.72C163.56 214.54 164.89 215.41 166.25 216.32C190.07 228.22 216.25 248.14 244.67 279.08Z" fill="#00682C"/>
<path d="M227.68 278.55L242.33 279.01L227.66 278.53C227.66 278.53 227.66 278.54 227.67 278.55H227.68Z" fill="url(#paint7_linear_12_2)"/>
<path d="M83.6504 273.81C83.7204 273.89 83.7901 273.97 83.8701 274.05L99.5903 274.54C99.5303 274.47 99.4702 274.39 99.4102 274.32L83.6602 273.8L83.6504 273.81Z" fill="url(#paint8_linear_12_2)"/>
<path d="M103.049 274.45C103.109 274.52 103.169 274.59 103.219 274.66L121.049 275.22C120.999 275.16 120.949 275.1 120.899 275.04L103.039 274.46L103.049 274.45Z" fill="url(#paint9_linear_12_2)"/>
<path d="M144.871 275.81C144.871 275.81 144.941 275.91 144.981 275.96L161.851 276.49C161.851 276.49 161.791 276.41 161.771 276.37L144.881 275.82L144.871 275.81Z" fill="url(#paint10_linear_12_2)"/>
<path d="M209.041 277.91C209.041 277.91 209.061 277.94 209.071 277.96L224.331 278.44L224.311 278.41L209.031 277.91H209.041Z" fill="url(#paint11_linear_12_2)"/>
<path d="M165.141 276.48C165.141 276.48 165.191 276.56 165.221 276.6L184 277.19C184 277.19 183.961 277.13 183.941 277.1L165.141 276.48Z" fill="url(#paint12_linear_12_2)"/>
<path d="M187.27 277.2C187.27 277.2 187.31 277.26 187.32 277.28L205.729 277.86C205.729 277.86 205.71 277.82 205.69 277.8L187.26 277.2H187.27Z" fill="url(#paint13_linear_12_2)"/>
<path d="M124.461 275.15C124.511 275.21 124.551 275.27 124.601 275.33L141.521 275.86C141.481 275.81 141.451 275.76 141.411 275.71L124.461 275.16V275.15Z" fill="url(#paint14_linear_12_2)"/>
<path d="M166.25 216.31C167.35 217.04 168.46 217.8 169.6 218.59C185.7 229.81 208.26 249.05 227.67 278.52L242.34 279L244.68 279.07C216.26 248.12 190.08 228.2 166.26 216.31H166.25Z" fill="#00682C"/>
<path d="M166.25 216.31C167.35 217.04 168.46 217.8 169.6 218.59C185.7 229.81 208.26 249.05 227.67 278.52L242.34 279L244.68 279.07C216.26 248.12 190.08 228.2 166.26 216.31H166.25Z" fill="url(#paint15_linear_12_2)"/>
<path d="M168.12 220.9C164.73 218.54 161.49 216.43 158.46 214.57C155.79 215.2 153.08 215.91 150.34 216.7C166.7 228.16 189.56 247.8 209.04 277.92L224.32 278.42C205.42 250.25 183.7 231.77 168.12 220.9Z" fill="#00682C"/>
<path d="M117.77 228.99C114.07 230.71 110.32 232.56 106.51 234.56C118.57 244.61 132.19 258.18 144.87 275.82L161.76 276.37C147.28 255.31 131.31 239.82 117.77 228.99Z" fill="#00682C"/>
<path d="M148.461 218.71C147.961 218.36 147.47 218.02 146.98 217.69C143.27 218.82 139.491 220.1 135.641 221.52C151.071 233.26 170.401 251.34 187.271 277.2L205.701 277.8C186.561 248.75 164.331 229.77 148.461 218.71Z" fill="#00682C"/>
<path d="M132.619 222.66C128.659 224.19 124.639 225.86 120.539 227.71C134.379 238.92 150.569 254.87 165.139 276.47L183.939 277.09C167.019 251.62 147.749 233.97 132.629 222.66H132.619Z" fill="#00682C"/>
<path d="M90.5698 243.51C87.0398 245.63 83.4696 247.87 79.8496 250.23C87.3496 256.96 95.2598 265 103.05 274.45L120.91 275.03C110.72 262.1 100.19 251.69 90.5698 243.51Z" fill="#00682C"/>
<path d="M77.4795 251.77C74.4395 253.78 71.3598 255.89 68.2598 258.07C73.2898 262.73 78.4696 267.96 83.6396 273.81L99.3896 274.33C92.0096 265.57 84.5495 258.09 77.4795 251.78V251.77Z" fill="#00682C"/>
<path d="M65.981 259.68C60.321 263.72 54.5614 268.04 48.6914 272.66L79.8711 273.68C75.1911 268.52 70.521 263.86 65.981 259.68Z" fill="#00682C"/>
<path d="M103.891 235.94C100.331 237.85 96.7108 239.88 93.0508 242.04C103.041 250.61 113.961 261.55 124.461 275.15L141.411 275.7C128.921 258.68 115.621 245.61 103.891 235.94Z" fill="#00682C"/>
<path d="M79.8701 273.69C75.1901 268.53 70.52 263.87 65.98 259.69C57.87 252.22 50.1901 246.25 43.6001 241.66C39.1001 238.52 34.86 235.84 31.02 233.57C10.63 251.96 0 271.44 0 271.44L80.0903 273.94C80.0203 273.86 79.9401 273.77 79.8701 273.69Z" fill="url(#paint16_linear_12_2)"/>
<path d="M168.12 220.9C164.73 218.54 161.49 216.43 158.46 214.57C154.51 212.14 150.91 210.13 147.79 208.49C141.12 206.17 134.65 204.48 128.4 203.35C134.11 206.3 141.53 210.57 149.93 216.42C150.06 216.51 150.2 216.61 150.33 216.71C166.69 228.17 189.55 247.81 209.03 277.93L224.31 278.43C205.41 250.26 183.69 231.78 168.11 220.91L168.12 220.9Z" fill="url(#paint17_linear_12_2)"/>
<path d="M117.77 228.99C113.94 225.93 110.3 223.23 106.95 220.9C95.8202 213.14 86.3101 208.16 80.3901 205.39C76.3001 206.54 72.3603 207.91 68.5703 209.46C74.5003 212.42 82.65 216.97 92.04 223.52C96.44 226.59 101.33 230.25 106.5 234.57C118.56 244.62 132.18 258.19 144.86 275.83L161.75 276.38C147.27 255.32 131.3 239.83 117.76 229L117.77 228.99Z" fill="url(#paint18_linear_12_2)"/>
<path d="M148.461 218.71C147.961 218.36 147.471 218.02 146.981 217.69C134.801 209.36 124.731 204.42 119.441 202.08C114.021 201.53 108.771 201.4 103.691 201.63C109.701 204.55 118.441 209.31 128.631 216.41C130.851 217.96 133.201 219.66 135.641 221.52C151.071 233.26 170.401 251.34 187.271 277.2L205.701 277.8C186.561 248.75 164.331 229.77 148.461 218.71Z" fill="url(#paint19_linear_12_2)"/>
<path d="M132.62 222.66C130.73 221.25 128.91 219.93 127.16 218.71C114.27 209.72 103.55 204.46 98.0698 202.04C93.3898 202.51 88.8695 203.28 84.5195 204.32C90.4795 207.27 98.8097 211.89 108.43 218.6C112.16 221.2 116.24 224.23 120.54 227.72C134.38 238.93 150.57 254.88 165.14 276.48L183.94 277.1C167.02 251.63 147.75 233.98 132.63 222.67L132.62 222.66Z" fill="url(#paint20_linear_12_2)"/>
<path d="M90.5708 243.51C84.8808 238.67 79.5105 234.61 74.7305 231.27C65.8605 225.08 58.0207 220.67 52.2007 217.72C49.0407 219.63 46.0206 221.64 43.1406 223.73C47.8506 226.38 53.3105 229.73 59.2705 233.88C65.3705 238.13 72.4106 243.54 79.8506 250.22C87.3506 256.95 95.2608 264.99 103.051 274.44L120.911 275.02C110.721 262.09 100.191 251.68 90.5708 243.5V243.51Z" fill="url(#paint21_linear_12_2)"/>
<path d="M77.4795 251.77C70.3695 245.43 63.6498 240.27 57.7998 236.19C51.4598 231.77 45.6497 228.25 40.7197 225.53C38.0797 227.53 35.5697 229.58 33.1797 231.66C36.8297 233.84 40.8296 236.39 45.0796 239.35C51.8896 244.1 59.8695 250.29 68.2695 258.07C73.2995 262.73 78.4799 267.96 83.6499 273.81L99.3999 274.33C92.0199 265.57 84.5597 258.09 77.4897 251.78L77.4795 251.77Z" fill="url(#paint22_linear_12_2)"/>
<path d="M103.89 235.94C99.1396 232.02 94.6398 228.65 90.5698 225.81C80.1798 218.56 71.1997 213.75 65.2397 210.88C61.6897 212.47 58.2798 214.21 55.0098 216.07C60.6798 219.02 67.9697 223.23 76.1997 228.97C81.2697 232.5 86.9898 236.84 93.0498 242.04C103.04 250.61 113.96 261.55 124.46 275.15L141.41 275.7C128.92 258.68 115.62 245.61 103.89 235.94Z" fill="url(#paint23_linear_12_2)"/>
<defs>
<linearGradient id="paint0_linear_12_2" x1="-1080.76" y1="1519.21" x2="227.321" y2="218.032" gradientUnits="userSpaceOnUse">
<stop stop-color="#049B24"/>
<stop offset="0.27" stop-color="#049622"/>
<stop offset="1" stop-color="#068E20"/>
</linearGradient>
<linearGradient id="paint1_linear_12_2" x1="-1061.02" y1="1538.5" x2="246.58" y2="237.409" gradientUnits="userSpaceOnUse">
<stop stop-color="#049B24"/>
<stop offset="0.27" stop-color="#049622"/>
<stop offset="1" stop-color="#068E20"/>
</linearGradient>
<linearGradient id="paint2_linear_12_2" x1="-1086.47" y1="1512.18" x2="220.353" y2="211.088" gradientUnits="userSpaceOnUse">
<stop stop-color="#049B24"/>
<stop offset="0.27" stop-color="#049622"/>
<stop offset="1" stop-color="#068E20"/>
</linearGradient>
<linearGradient id="paint3_linear_12_2" x1="15.0922" y1="423.933" x2="273.348" y2="165.787" gradientUnits="userSpaceOnUse">
<stop stop-color="#049B24"/>
<stop offset="0.37" stop-color="#059421"/>
<stop offset="1" stop-color="#068E20"/>
</linearGradient>
<linearGradient id="paint4_linear_12_2" x1="-1083.73" y1="1516.63" x2="224.805" y2="215.485" gradientUnits="userSpaceOnUse">
<stop stop-color="#049B24"/>
<stop offset="0.27" stop-color="#049622"/>
<stop offset="1" stop-color="#068E20"/>
</linearGradient>
<linearGradient id="paint5_linear_12_2" x1="-727.658" y1="1213.29" x2="297.816" y2="185.959" gradientUnits="userSpaceOnUse">
<stop stop-color="#049B24"/>
<stop offset="0.27" stop-color="#049622"/>
<stop offset="1" stop-color="#068E20"/>
</linearGradient>
<linearGradient id="paint6_linear_12_2" x1="-1059.77" y1="1538.11" x2="245.966" y2="236.836" gradientUnits="userSpaceOnUse">
<stop stop-color="#049B24"/>
<stop offset="0.27" stop-color="#049622"/>
<stop offset="1" stop-color="#068E20"/>
</linearGradient>
<linearGradient id="paint7_linear_12_2" x1="-1068.18" y1="1575.05" x2="239.772" y2="273.885" gradientUnits="userSpaceOnUse">
<stop stop-color="#049B24"/>
<stop offset="0.27" stop-color="#049622"/>
<stop offset="1" stop-color="#068E20"/>
</linearGradient>
<linearGradient id="paint8_linear_12_2" x1="-1141.79" y1="1501.49" x2="166.619" y2="200.324" gradientUnits="userSpaceOnUse">
<stop stop-color="#049B24"/>
<stop offset="0.27" stop-color="#049622"/>
<stop offset="1" stop-color="#068E20"/>
</linearGradient>
<linearGradient id="paint9_linear_12_2" x1="-1131.33" y1="1511.69" x2="176.709" y2="210.499" gradientUnits="userSpaceOnUse">
<stop stop-color="#049B24"/>
<stop offset="0.27" stop-color="#049622"/>
<stop offset="1" stop-color="#068E20"/>
</linearGradient>
<linearGradient id="paint10_linear_12_2" x1="-1110.1" y1="1532.38" x2="197.303" y2="231.213" gradientUnits="userSpaceOnUse">
<stop stop-color="#049B24"/>
<stop offset="0.27" stop-color="#049622"/>
<stop offset="1" stop-color="#068E20"/>
</linearGradient>
<linearGradient id="paint11_linear_12_2" x1="-1077.57" y1="1566.31" x2="231.102" y2="265.162" gradientUnits="userSpaceOnUse">
<stop stop-color="#049B24"/>
<stop offset="0.27" stop-color="#049622"/>
<stop offset="1" stop-color="#068E20"/>
</linearGradient>
<linearGradient id="paint12_linear_12_2" x1="-1099.2" y1="1543.84" x2="208.728" y2="242.68" gradientUnits="userSpaceOnUse">
<stop stop-color="#049B24"/>
<stop offset="0.27" stop-color="#049622"/>
<stop offset="1" stop-color="#068E20"/>
</linearGradient>
<linearGradient id="paint13_linear_12_2" x1="-1087.93" y1="1555.53" x2="220.377" y2="254.383" gradientUnits="userSpaceOnUse">
<stop stop-color="#049B24"/>
<stop offset="0.27" stop-color="#049622"/>
<stop offset="1" stop-color="#068E20"/>
</linearGradient>
<linearGradient id="paint14_linear_12_2" x1="-1120.52" y1="1522.39" x2="187.406" y2="221.248" gradientUnits="userSpaceOnUse">
<stop stop-color="#049B24"/>
<stop offset="0.27" stop-color="#049622"/>
<stop offset="1" stop-color="#068E20"/>
</linearGradient>
<linearGradient id="paint15_linear_12_2" x1="-1098.42" y1="1544.71" x2="209.58" y2="243.535" gradientUnits="userSpaceOnUse">
<stop stop-color="#049B24"/>
<stop offset="0.27" stop-color="#049622"/>
<stop offset="1" stop-color="#068E20"/>
</linearGradient>
<linearGradient id="paint16_linear_12_2" x1="-4847.93" y1="5157.09" x2="247.525" y2="61.6329" gradientUnits="userSpaceOnUse">
<stop stop-color="#049B24"/>
<stop offset="0.27" stop-color="#049622"/>
<stop offset="1" stop-color="#068E20"/>
</linearGradient>
<linearGradient id="paint17_linear_12_2" x1="-1499.34" y1="1916.58" x2="249.636" y2="167.597" gradientUnits="userSpaceOnUse">
<stop stop-color="#049B24"/>
<stop offset="0.27" stop-color="#049622"/>
<stop offset="1" stop-color="#068E20"/>
</linearGradient>
<linearGradient id="paint18_linear_12_2" x1="-1859.9" y1="2217.98" x2="201.089" y2="156.99" gradientUnits="userSpaceOnUse">
<stop stop-color="#049B24"/>
<stop offset="0.27" stop-color="#049622"/>
<stop offset="1" stop-color="#068E20"/>
</linearGradient>
<linearGradient id="paint19_linear_12_2" x1="-1866.64" y1="2261.07" x2="242.913" y2="151.511" gradientUnits="userSpaceOnUse">
<stop stop-color="#049B24"/>
<stop offset="0.27" stop-color="#049622"/>
<stop offset="1" stop-color="#068E20"/>
</linearGradient>
<linearGradient id="paint20_linear_12_2" x1="-1922.97" y1="2297.89" x2="223.893" y2="151.023" gradientUnits="userSpaceOnUse">
<stop stop-color="#049B24"/>
<stop offset="0.27" stop-color="#049622"/>
<stop offset="1" stop-color="#068E20"/>
</linearGradient>
<linearGradient id="paint21_linear_12_2" x1="-1712.74" y1="2044.16" x2="159.43" y2="171.999" gradientUnits="userSpaceOnUse">
<stop stop-color="#049B24"/>
<stop offset="0.27" stop-color="#049622"/>
<stop offset="1" stop-color="#068E20"/>
</linearGradient>
<linearGradient id="paint22_linear_12_2" x1="-1480.55" y1="1799.82" x2="132.804" y2="186.484" gradientUnits="userSpaceOnUse">
<stop stop-color="#049B24"/>
<stop offset="0.27" stop-color="#049622"/>
<stop offset="1" stop-color="#068E20"/>
</linearGradient>
<linearGradient id="paint23_linear_12_2" x1="-1807.36" y1="2151.45" x2="180.726" y2="163.367" gradientUnits="userSpaceOnUse">
<stop stop-color="#049B24"/>
<stop offset="0.27" stop-color="#049622"/>
<stop offset="1" stop-color="#068E20"/>
</linearGradient>
</defs>
</svg>
